<?xml version="1.0" encoding="UTF-8"?>
<svg id="Camada_1" xmlns="http://www.w3.org/2000/svg" version="1.1" viewBox="0 0 1293.68 1052.13">
  <!-- Generator: Adobe Illustrator 30.4.0, SVG Export Plug-In . SVG Version: 2.1.4 Build 226)  -->
  <defs>
    <style>
      .st0 {
        fill: #277661;
      }

      .st1 {
        fill: #7d6641;
      }

      .st2 {
        fill: #736643;
      }

      .st3 {
        fill: #c45a2a;
      }

      .st4 {
        fill: #c45a29;
      }
    </style>
  </defs>
  <path class="st0" d="M823.09,998.5c-33.16,18.65-83.99,38.55-120.35,44.21l-21.15,3.29-21.4,2.12c-30.45,3.02-53.36-3.26-80.77-7.88-20.68-3.48-39.54-10.28-58.98-17.09-14.38-5.04-26.58-11.62-40.1-18.09-30.9-14.79-57-34.78-77.96-62.27l-13.09-17.17c-34.55-55.42-64.8-105.8-107.36-156.1-6.05-7.15-12.77-12.36-19.24-19.23l-12.46-13.23-9.53-8.66-48.09-39.79-65.34-52.49c-10.81-8.69-19.48-17.48-28.62-27.8C44.68,547.37,6.11,472.8,1.23,390.08l-.18-48.12,1.83-24.31c.65-8.57,2.55-17.02,4.35-25.31,8.33-38.51,23.68-73.51,40.95-108.34,6.34-12.79,12.15-24.11,20.51-35.65l38.67-53.39c25.57-30.2,53.8-56.77,89.32-74.51,23.38-11.68,48.52-15.24,74.46-17.88,26.26-2.67,51.62,3.89,77.2,10.68,28.96,7.69,55.29,19.37,82.94,30.45l36.05,14.45c62.89,25.2,132.29,55.8,204.49,46.98,42.13-5.15,81.69-17.09,120.49-33.12l103.2-42.63c66.15-27.32,144.61-39.43,207.93-3.42,31.34,17.82,56.32,42.73,79.77,70.04,24.12,28.09,42.27,59.51,60.47,91.44l7.19,14.88c10.34,21.41,21.55,42.32,25.91,65.98l12.7,69,.96,19.05c3.58,15.8-1.07,31.28-3.02,46.95-3.32,26.64-6.46,52.01-17.38,76.65l-20.32,45.83c-18.95,36.24-43.75,68.39-71.99,97.49-14.78,15.22-30.49,26.61-46.93,39.53l-40.16,31.57-37.05,29.12-42.23,41.5-22.39,27.66-9.49,12.66c-20.6,27.5-39.75,55.2-56.36,85.41l-13.72,20.64c-23.01,34.61-49.65,66.55-86.31,87.17Z"/>
  <path class="st2" d="M1033.6,511.18c-28.84,44.13-81.09,75.95-133.85,74.81-31.82-.69-55.73-22.63-57.49-55.52-2.68-49.82,25.28-108.5,63.5-141.14,29.24-24.98,64.25-42.34,102.81-40.96,31.88,1.14,48.56,20.71,55.8,50.57,2.75,11.34,1.7,23.65-.07,35.17-4.35,28.41-15.13,53.24-30.7,77.07Z"/>
  <path class="st1" d="M440.65,554.73c-17.32,38.87-72.88,37-113.78,17.46-41.44-19.79-65.56-46.67-85.88-87.66-13-26.22-19.57-55.09-16.12-83.66,3.78-31.31,26.91-51.87,58.07-52.5l19.16,1.16c26.1,4.57,49.76,16.39,71.36,32.63,41.79,31.42,67.29,79.64,73.75,131.57,1.75,14.04-.75,27.95-6.56,40.99Z"/>
  <path class="st3" d="M1023.17,519.23c-51.12,66.02-150.69,87.29-172.3,31.61-9.63-24.79-4.06-49.07,2.37-73.43,4.26-16.16,12.18-29.58,20.65-43.69,15.76-26.29,36.29-46.22,62.89-61.46,22.14-12.68,46.31-21.58,71.93-20.1,40.44,2.34,57.12,37.21,52.39,76.41-4.13,34.27-16.77,63.35-37.92,90.66Z"/>
  <path class="st4" d="M443.43,518.57c1.99,12.57-1.78,25.32-6.8,36.03-16.83,35.93-73.93,32.03-109.7,13.96-28.05-14.17-51.48-33.82-68.36-59.66-21.11-32.32-33.53-68.44-30.04-106.41,2.6-28.29,22.94-48.21,50.51-50.26,12.37-.92,33.3,1.81,43.75,6.3,21.96,9.43,43.46,20.13,61.26,36.79,25.96,24.3,44.17,55.46,54.04,89.54l5.33,33.7Z"/>
</svg>