<?xml version="1.0" encoding="UTF-8"?>
<svg id="Camada_2" data-name="Camada 2" xmlns="http://www.w3.org/2000/svg" viewBox="0 0 1548.7 1364.79">
  <defs>
    <style>
      .cls-1 {
        fill: #4dc1ac;
      }
    </style>
  </defs>
  <g id="Camada_1-2" data-name="Camada 1">
    <g>
      <path class="cls-1" d="M1357.46,145.94c18.5,18.4,38.03,25.16,56.52,39.45,24.39,18.85,17.87,43.95.2,65.13,26.94,19.08,72.83,26.96,104.45,17.41,5.08-1.54,27.82-14.65,30.07-12.46-10.35,26.9-38.39,36.84-65.28,39.58-.64,3.8,2.56,5.69,4.99,7.86,12.19,10.87,30.42,16.43,40.52,29.71-18,1.98-33.4-4.16-49.43-10.9-21.51-9.04-44.14-21.08-64.68-32.28-6.1-3.32-24.05-17.07-27.84-17.83-7.71-1.54-31.03,4.91-41.1,5.6-55.98,3.81-142.25-11.36-192.27-37.22-62.24-32.18-93.85-97.25-178.09-62.05-76.93,32.14-86.42,124.59-47.78,190.96,53.16,91.3,237.03,179.06,327.96,237.96,170.04,110.13,298.03,244.44,269.05,464.61-35.04,266.2-355.25,383.3-560.69,214.87-48.07-39.41-99.47-122.51-154.84-141.97-97.61-34.29-160.95,60.46-231.44,108.02-126.96,85.66-285.77,70.49-354.54-76.09-20.86-44.48-25.1-96.01-57.72-134.22-30.29-35.48-76.42-33.24-118.66-42.62-3.96-5.43,19.83-16.01,23.22-17.32,36.93-14.17,81.58-7.66,115.13,12.55,77.85,46.9,74.46,164.55,157.75,202.38,136.08,61.79,216.43-101.17,311.11-163.23,96.32-63.13,208.83-50.08,299.68,15.47,39.3,28.36,73.16,68.16,113.53,94.24,148.54,95.93,283.14-59.3,197.34-201.3-61.45-101.7-261.12-194.01-362.41-264.86-158.32-110.75-269.6-268.33-191.46-469.39C793.07-3.83,1071.45-48.31,1257.18,49.33c56.85,29.89,60.41,56.97,100.28,96.61M1271.69,152.56c4.57-4.39-21.62-27.32-25.9-30.5-15.24-11.3-38.51-23.03-57.68-23.64-8.48-.27-5.32,3.66-3.24,9.36,12.75,34.77,51.25,52.63,86.81,44.77"/>
      <path class="cls-1" d="M787.88,910.43c-28.69-46.57-60.6-87.77-104.09-121.49-9.25-7.18-41.98-31.45-51.17-33.9-14.97-3.99-50.15,13.23-66.93,18.29-247.68,74.55-430.71-64.09-550.13-269.92-2.78-4.79-17.26-29.38-15.39-32.31,67.63-29.49,139.31-51.19,212.47-62.7,159.16-25.05,325.41,8.3,407.67,159.08,16.9,30.98,30.64,68.53,35.97,103.51-48.89-24.8-96.64-50.79-147.86-70.77-82.37-32.13-185.42-59.64-273.6-66.76-2.06-.17-6.31-2.93-5.92.97,136.44,34.06,269.55,89.17,390.4,160.7,76.37,45.2,155.36,100.93,213.05,168.85,6.19,7.29,26.47,32.34,29.88,39.38,1.17,2.41,2.5,4.02,1.84,7.06h-76.18Z"/>
    </g>
  </g>
</svg>